<?xml version="1.0" standalone="no"?>
<!DOCTYPE svg PUBLIC "-//W3C//DTD SVG 20010904//EN"
 "http://www.w3.org/TR/2001/REC-SVG-20010904/DTD/svg10.dtd">
<svg version="1.0" xmlns="http://www.w3.org/2000/svg"
 width="48.000000pt" height="48.000000pt" viewBox="0 0 48.000000 48.000000"
 preserveAspectRatio="xMidYMid meet">

<g transform="translate(0.000000,48.000000) scale(0.100000,-0.100000)"
fill="#000000" stroke="none">
<path d="M151 411 c-6 -11 -11 -27 -11 -35 0 -10 -9 -16 -25 -16 -43 0 -75
-41 -75 -95 0 -43 3 -48 30 -58 29 -11 30 -14 30 -70 0 -51 -2 -58 -14 -47 -8
6 -16 24 -18 38 -4 33 -22 36 -26 4 -10 -69 70 -102 248 -102 115 0 122 1 145
25 22 21 25 33 25 100 0 126 -37 205 -95 205 -15 0 -24 9 -30 33 l-10 32 -82
3 c-73 2 -83 1 -92 -17z m159 -31 c0 -18 -7 -20 -70 -20 -63 0 -70 2 -70 20 0
18 7 20 70 20 63 0 70 -2 70 -20z m90 -65 c11 -13 -3 -15 -119 -15 -127 0
-133 -1 -156 -25 -14 -13 -25 -29 -25 -35 0 -5 -7 -10 -15 -10 -19 0 -21 70
-3 88 8 8 58 12 159 12 118 0 149 -3 159 -15z"/>
</g>
</svg>
